<?xml version="1.0" encoding="UTF-8" standalone="no"?>
<!DOCTYPE svg PUBLIC "-//W3C//DTD SVG 1.0//EN" "http://www.w3.org/TR/2001/REC-SVG-20010904/DTD/svg10.dtd">
<!-- 由 Microsoft Visio 11.0, SVG Export, v1.0 生成 Block.svg Block -->
<svg xmlns="http://www.w3.org/2000/svg" xmlns:v="http://schemas.microsoft.com/visio/2003/SVGExtensions/" width="9.84252in"
		height="6.29921in" viewBox="0 0 708.661 453.543" xml:space="preserve" color-interpolation-filters="sRGB" class="st20">
	<v:documentProperties v:langID="2052" v:metric="true" v:viewMarkup="false"/>

	<style type="text/css">
	<![CDATA[
		.st1 {fill:#92d050;stroke:none;stroke-linecap:round;stroke-linejoin:round;stroke-width:0.24}
		.st2 {fill:#000000;font-family:宋体;font-size:1.16666em;font-style:italic}
		.st3 {fill:#92d050;fill-opacity:0.7;stroke:#000000;stroke-linecap:round;stroke-linejoin:round;stroke-width:1.2}
		.st4 {fill:#ff00ff;stroke:none;stroke-linecap:round;stroke-linejoin:round;stroke-width:0.24}
		.st5 {fill:#000000;font-family:宋体;font-size:0.833336em}
		.st6 {fill:#0070c0;stroke:none;stroke-linecap:round;stroke-linejoin:round;stroke-width:0.24}
		.st7 {fill:#ff0000;stroke:none;stroke-linecap:round;stroke-linejoin:round;stroke-width:0.24}
		.st8 {marker-end:url(#mrkr13-23);stroke:#000000;stroke-linecap:round;stroke-linejoin:round;stroke-width:0.24}
		.st9 {fill:#000000;fill-opacity:1;stroke:#000000;stroke-opacity:1;stroke-width:0.08695652173913}
		.st10 {fill:#00b050;stroke:none;stroke-linecap:round;stroke-linejoin:round;stroke-width:0.24}
		.st11 {stroke:#000000;stroke-linecap:round;stroke-linejoin:round;stroke-width:0.239976}
		.st12 {marker-end:url(#mrkr13-23);stroke:#000000;stroke-linecap:round;stroke-linejoin:round;stroke-width:0.239976}
		.st13 {fill:#e8eef7;stroke:#000000;stroke-linecap:round;stroke-linejoin:round;stroke-width:0.24}
		.st14 {fill:#92d050;stroke:#000000;stroke-linecap:round;stroke-linejoin:round;stroke-width:0.24}
		.st15 {fill:#000000;font-family:宋体;font-size:1.16666em}
		.st16 {font-size:1em}
		.st17 {fill:#92d050;stroke:#000000;stroke-dasharray:3.6,2.16;stroke-linecap:round;stroke-linejoin:round;stroke-width:0.24}
		.st18 {fill:#000000;font-family:宋体;font-size:0.666664em}
		.st19 {fill:#92d050;stroke:none;stroke-linecap:round;stroke-linejoin:round;stroke-width:0.72}
		.st20 {fill:none;fill-rule:evenodd;font-size:12;overflow:visible;stroke-linecap:square;stroke-miterlimit:3}
	]]>
	</style>

	<defs id="Markers">
		<g id="lend13">
			<path d="M 3 1 L -0 0 L 3 -1 L 3 1 " style="stroke:none"/>
		</g>
		<marker id="mrkr13-23" class="st9" v:arrowType="13" v:arrowSize="2" v:setback="34.5" refX="-34.5" orient="auto"
				markerUnits="strokeWidth">
			<use xlink:href="#lend13" transform="scale(-11.5,-11.5) "/>
		</marker>
	</defs>
	<g v:mID="6" v:index="4" v:groupContext="foregroundPage">
		<title>Block</title>
		<v:pageProperties v:drawingScale="0.0393701" v:pageScale="0.0393701" v:drawingUnits="24" v:shadowOffsetX="8.50394"
				v:shadowOffsetY="-8.50394"/>
		<v:layer v:name="连接线" v:index="0"/>
		<g id="shape23-1" v:mID="23" v:groupContext="shape" transform="translate(722.835,240.945) rotate(90) scale(-1,1)">
			<title>45 度单向箭头</title>
			<desc>Load Java Class</desc>
			<v:userDefs>
				<v:ud v:nameU="visVersion" v:val="VT0(12):26"/>
			</v:userDefs>
			<v:textBlock v:margins="rect(4,4,4,4)" v:tabSpace="42.5197"/>
			<v:textRect cx="85.0394" cy="411.024" width="170.08" height="85.0394" transform="rotate(-180)"/>
			<path d="M0 411.02 L42.52 368.5 L42.52 396.57 L170.08 396.57 L170.08 425.48 L42.52 425.48 L42.52 453.54 L0 411.02 Z"
					class="st1"/>
			<text x="32.54" y="-406.82" transform="scale(1,-1)" class="st2" v:langID="1033"><v:paragraph v:horizAlign="1"/><v:tabList/>Load Java Class</text>		</g>
		<g id="shape1-4" v:mID="1" v:groupContext="shape" transform="translate(28.3465,-14.1732)">
			<title>圆角矩形</title>
			<v:userDefs>
				<v:ud v:nameU="visVersion" v:val="VT0(12):26"/>
			</v:userDefs>
			<path d="M637.8 453.54 A14.1733 14.1733 -180 0 0 651.97 439.37 L651.97 42.52 A14.1733 14.1733 -180 0 0 637.8 28.35 L14.17
						 28.35 A14.1733 14.1733 -180 0 0 -0 42.52 L0 439.37 A14.1733 14.1733 -180 0 0 14.17 453.54 L637.8 453.54
						 Z" class="st3"/>
		</g>
		<g id="shape2-6" v:mID="2" v:groupContext="shape" transform="translate(28.3465,-354.331)">
			<title>矩形</title>
			<desc>Env</desc>
			<v:userDefs>
				<v:ud v:nameU="visVersion" v:val="VT0(12):26"/>
			</v:userDefs>
			<v:textBlock v:margins="rect(4,4,4,4)" v:tabSpace="42.5197" v:verticalText="true"/>
			<v:textRect cx="11.3386" cy="425.197" width="22.68" height="56.6929"/>
			<rect x="0" y="396.85" width="22.6772" height="56.6929" class="st4"/>
			<text x="11.34" y="417.7" writing-mode="tb-rl" class="st5" v:langID="2052"><v:paragraph v:horizAlign="1"/><v:tabList/>Env</text>		</g>
		<g id="shape3-9" v:mID="3" v:groupContext="shape" transform="translate(28.3465,-269.291)">
			<title>矩形.3</title>
			<desc>Structure</desc>
			<v:userDefs>
				<v:ud v:nameU="visVersion" v:val="VT0(12):26"/>
			</v:userDefs>
			<v:textBlock v:margins="rect(4,4,4,4)" v:tabSpace="42.5197" v:verticalText="true"/>
			<v:textRect cx="11.3386" cy="425.197" width="22.68" height="56.6929"/>
			<rect x="0" y="396.85" width="22.6772" height="56.6929" class="st4"/>
			<text x="11.34" y="402.7" writing-mode="tb-rl" class="st5" v:langID="2052"><v:paragraph v:horizAlign="1"/><v:tabList/>Structure</text>		</g>
		<g id="shape4-12" v:mID="4" v:groupContext="shape" transform="translate(85.0394,-14.1732)">
			<title>矩形.4</title>
			<desc>Documents</desc>
			<v:userDefs>
				<v:ud v:nameU="visVersion" v:val="VT0(12):26"/>
			</v:userDefs>
			<v:textBlock v:margins="rect(4,4,4,4)" v:tabSpace="42.5197"/>
			<v:textRect cx="28.3465" cy="442.205" width="56.7" height="22.6772"/>
			<rect x="0" y="430.866" width="56.6929" height="22.6772" class="st6"/>
			<text x="5.85" y="445.2" class="st5" v:langID="2052"><v:paragraph v:horizAlign="1"/><v:tabList/>Documents</text>		</g>
		<g id="shape5-15" v:mID="5" v:groupContext="shape" transform="translate(85.0394,-191.339)">
			<title>圆角矩形.5</title>
			<desc>Reflector</desc>
			<v:userDefs>
				<v:ud v:nameU="visVersion" v:val="VT0(12):26"/>
			</v:userDefs>
			<v:textBlock v:margins="rect(4,4,4,4)" v:tabSpace="42.5197"/>
			<v:textRect cx="28.3465" cy="432.283" width="56.7" height="42.5197"/>
			<path d="M42.52 453.54 A14.1733 14.1733 -180 0 0 56.69 439.37 L56.69 425.2 A14.1733 14.1733 -180 0 0 42.52 411.02 L14.17
						 411.02 A14.1733 14.1733 -180 0 0 -0 425.2 L0 439.37 A14.1733 14.1733 -180 0 0 14.17 453.54 L42.52 453.54
						 Z" class="st7"/>
			<text x="5.85" y="435.28" class="st5" v:langID="1033"><v:paragraph v:horizAlign="1"/><v:tabList/>Reflector</text>		</g>
		<g id="shape7-18" v:mID="7" v:groupContext="shape" transform="translate(566.929,262.205) rotate(90)">
			<title>工作表.7</title>
			<path d="M0 453.54 L146.21 453.54" class="st8"/>
		</g>
		<g id="shape6-24" v:mID="6" v:groupContext="shape" transform="translate(396.85,-311.811)">
			<title>圆角矩形.6</title>
			<desc>Converger</desc>
			<v:userDefs>
				<v:ud v:nameU="visVersion" v:val="VT0(12):26"/>
			</v:userDefs>
			<v:textBlock v:margins="rect(4,4,4,4)" v:tabSpace="42.5197"/>
			<v:textRect cx="35.4331" cy="425.197" width="70.87" height="56.6929"/>
			<path d="M56.69 453.54 A14.1733 14.1733 -180 0 0 70.87 439.37 L70.87 411.02 A14.1733 14.1733 -180 0 0 56.69 396.85 L14.17
						 396.85 A14.1733 14.1733 -180 0 0 0 411.02 L0 439.37 A14.1733 14.1733 -180 0 0 14.17 453.54 L56.69 453.54
						 Z" class="st10"/>
			<text x="12.93" y="428.2" class="st5" v:langID="1033"><v:paragraph v:horizAlign="1"/><v:tabList/>Converger</text>		</g>
		<g id="shape8-27" v:mID="8" v:groupContext="shape" v:layerMember="0" transform="translate(51.0236,-382.677)">
			<title>动态连接线</title>
			<path d="M0 453.54 L175.75 453.54 L175.75 496.06 L345.83 496.06" class="st11"/>
		</g>
		<g id="shape9-30" v:mID="9" v:groupContext="shape" v:layerMember="0" transform="translate(51.0236,-297.638)">
			<title>动态连接线.9</title>
			<path d="M0 453.54 L175.75 453.54 L175.75 411.02 L337.55 411.02" class="st12"/>
		</g>
		<g id="shape10-35" v:mID="10" v:groupContext="shape" v:layerMember="0" transform="translate(39.685,-269.291)">
			<title>动态连接线.10</title>
			<path d="M0 453.54 L0 510.24 L37.07 510.24" class="st12"/>
		</g>
		<g id="shape11-40" v:mID="11" v:groupContext="shape" transform="translate(510.236,-320.315)">
			<title>矩形.11</title>
			<v:userDefs>
				<v:ud v:nameU="visVersion" v:val="VT0(12):26"/>
			</v:userDefs>
			<rect x="0" y="413.858" width="56.6929" height="39.685" class="st4"/>
		</g>
		<g id="shape12-42" v:mID="12" v:groupContext="shape" v:layerMember="0" transform="translate(467.717,-333.071)">
			<title>动态连接线.12</title>
			<path d="M0 446.46 L34.24 446.46" class="st12"/>
		</g>
		<g id="shape13-47" v:mID="13" v:groupContext="shape" transform="translate(467.717,-99.2126)">
			<title>圆角矩形.13</title>
			<desc>Converter</desc>
			<v:userDefs>
				<v:ud v:nameU="visVersion" v:val="VT0(12):26"/>
			</v:userDefs>
			<v:textBlock v:margins="rect(4,4,4,4)" v:tabSpace="42.5197"/>
			<v:textRect cx="70.8661" cy="396.85" width="141.74" height="113.386"/>
			<path d="M127.56 453.54 A14.1733 14.1733 -180 0 0 141.73 439.37 L141.73 354.33 A14.1733 14.1733 -180 0 0 127.56 340.16
						 L14.17 340.16 A14.1733 14.1733 -180 0 0 0 354.33 L0 439.37 A14.1733 14.1733 -180 0 0 14.17 453.54 L127.56
						 453.54 Z" class="st6"/>
			<text x="48.37" y="399.85" class="st5" v:langID="1033"><v:paragraph v:horizAlign="1"/><v:tabList/>Converter</text>		</g>
		<g id="shape14-50" v:mID="14" v:groupContext="shape" v:layerMember="0" transform="translate(531.496,-320.315)">
			<title>动态连接线.14</title>
			<path d="M7.09 453.54 L7.09 552.98" class="st12"/>
		</g>
		<g id="shape15-55" v:mID="15" v:groupContext="shape" v:layerMember="0" transform="translate(141.732,-25.5118)">
			<title>动态连接线.15</title>
			<path d="M0 453.54 L396.85 453.54 L396.85 388.12" class="st12"/>
		</g>
		<g id="shape16-60" v:mID="16" v:groupContext="shape" transform="translate(657.638,-127.559)">
			<title>矩形.16</title>
			<v:userDefs>
				<v:ud v:nameU="visVersion" v:val="VT0(12):26"/>
			</v:userDefs>
			<rect x="0" y="396.85" width="22.6772" height="56.6929" class="st13"/>
		</g>
		<g id="shape17-62" v:mID="17" v:groupContext="shape" v:layerMember="0" transform="translate(609.449,-148.819)">
			<title>动态连接线.17</title>
			<path d="M0 446.46 L39.91 446.46" class="st12"/>
		</g>
		<g id="group18-67" transform="translate(368.504,-127.559) scale(-1,1)" v:mID="18" v:groupContext="group">
			<v:userDefs>
				<v:ud v:nameU="ScaleFactor" v:val="VT0(1):26"/>
				<v:ud v:nameU="visVersion" v:val="VT0(12):26"/>
			</v:userDefs>
			<title>三维框</title>
			<desc>Dynamic Java Class Library</desc>
			<g id="shape19-68" v:mID="19" v:groupContext="shape" transform="translate(0,8.50394)">
				<title>工作表.19</title>
				<path d="M0 445.04 L113.39 445.04 L104.88 453.54 L-8.5 453.54 L0 445.04 Z" class="st14"/>
			</g>
			<g id="shape20-70" v:mID="20" v:groupContext="shape" transform="translate(-8.50394,0)">
				<title>工作表.20</title>
				<path d="M0 462.05 L8.5 453.54 L8.5 368.5 L0 377.01 L0 462.05 Z" class="st14"/>
			</g>
			<g id="shape21-72" v:mID="21" v:groupContext="shape">
				<title>工作表.21</title>
				<rect x="0" y="368.504" width="113.386" height="85.0394" class="st14"/>
			</g>
			<g id="shape18-74" v:mID="18" v:groupContext="groupContent">
				<v:textBlock v:margins="rect(4,4,4,4)" v:tabSpace="42.5197"/>
				<v:textRect cx="56.6929" cy="411.024" width="113.39" height="85.0394"/>
				<text x="-98.69" y="406.82" transform="scale(-1,1)" class="st15" v:langID="1033"><v:paragraph v:horizAlign="1"/><v:tabList/>Dynamic Java <tspan
							x="-102.19" dy="1.2em" class="st16">Class Library</tspan></text>			</g>
		</g>
		<g id="shape22-77" v:mID="22" v:groupContext="shape" transform="translate(255.118,-382.677)">
			<title>矩形.22</title>
			<desc>Configuration Interface</desc>
			<v:userDefs>
				<v:ud v:nameU="visVersion" v:val="VT0(12):26"/>
			</v:userDefs>
			<v:textBlock v:margins="rect(4,4,4,4)" v:tabSpace="42.5197"/>
			<v:textRect cx="56.6929" cy="425.197" width="113.39" height="56.6929"/>
			<rect x="0" y="396.85" width="113.386" height="56.6929" class="st1"/>
			<text x="11.19" y="421" class="st15" v:langID="1033"><v:paragraph v:horizAlign="1"/><v:tabList/>Configuration <tspan
						x="25.19" dy="1.2em" class="st16">Interface</tspan></text>		</g>
		<g id="shape24-81" v:mID="24" v:groupContext="shape" transform="translate(467.717,-170.079)">
			<title>圆角矩形.24</title>
			<desc>Environment Label Process Class</desc>
			<v:userDefs>
				<v:ud v:nameU="visVersion" v:val="VT0(12):26"/>
			</v:userDefs>
			<v:textBlock v:margins="rect(4,4,4,4)" v:tabSpace="42.5197"/>
			<v:textRect cx="70.8661" cy="439.37" width="141.74" height="28.3465"/>
			<path d="M127.56 453.54 A14.1733 14.1733 -180 0 0 141.73 439.37 L141.73 439.37 A14.1733 14.1733 -180 0 0 127.56 425.2
						 L14.17 425.2 A14.1733 14.1733 -180 0 0 0 439.37 L0 439.37 A14.1733 14.1733 -180 0 0 14.17 453.54 L127.56
						 453.54 Z" class="st17"/>
			<text x="8.86" y="441.77" class="st18" v:langID="2052"><v:paragraph v:horizAlign="1"/><v:tabList/>Environment Label Process Class</text>		</g>
		<g id="shape25-84" v:mID="25" v:groupContext="shape" transform="translate(467.717,-113.386)">
			<title>圆角矩形.25</title>
			<desc>File Body Process Class</desc>
			<v:userDefs>
				<v:ud v:nameU="visVersion" v:val="VT0(12):26"/>
			</v:userDefs>
			<v:textBlock v:margins="rect(4,4,4,4)" v:tabSpace="42.5197"/>
			<v:textRect cx="70.8661" cy="439.37" width="141.74" height="28.3465"/>
			<path d="M127.56 453.54 A14.1733 14.1733 -180 0 0 141.73 439.37 L141.73 439.37 A14.1733 14.1733 -180 0 0 127.56 425.2
						 L14.17 425.2 A14.1733 14.1733 -180 0 0 0 439.37 L0 439.37 A14.1733 14.1733 -180 0 0 14.17 453.54 L127.56
						 453.54 Z" class="st17"/>
			<text x="24.86" y="441.77" class="st18" v:langID="2052"><v:paragraph v:horizAlign="1"/><v:tabList/>File Body Process Class</text>		</g>
		<g id="shape26-87" v:mID="26" v:groupContext="shape" transform="translate(382.677,-158.74)">
			<title>TwistArrow</title>
			<path d="M3.04 453.54 L0 447.47 A72.8909 24.297 0 0 1 72.89 423.17 L64.39 414.67 L85.04 423.17 L69.85 441.39 L75.93 429.25
						 A72.8909 24.297 -180 0 0 3.04 453.54 Z" class="st19"/>
		</g>
		<g id="shape27-89" v:mID="27" v:groupContext="shape" transform="translate(382.677,751.181) scale(1,-1)">
			<title>TwistArrow.27</title>
			<path d="M3.04 453.54 L0 447.47 A72.8909 24.297 0 0 1 72.89 423.17 L64.39 414.67 L85.04 423.17 L69.85 441.39 L75.93 429.25
						 A72.8909 24.297 -180 0 0 3.04 453.54 Z" class="st19"/>
		</g>
		<g id="shape28-91" v:mID="28" v:groupContext="shape" transform="translate(396.85,-311.811)">
			<title>圆角矩形.28</title>
			<desc>lunit</desc>
			<v:userDefs>
				<v:ud v:nameU="visVersion" v:val="VT0(12):26"/>
			</v:userDefs>
			<v:textBlock v:margins="rect(4,4,4,4)" v:tabSpace="42.5197"/>
			<v:textRect cx="14.1732" cy="442.913" width="28.35" height="21.2598"/>
			<path d="M17.72 453.54 A10.63 10.63 -180 0 0 28.35 442.91 A10.63 10.63 -180 0 0 17.72 432.28 L10.63 432.28 A10.63 10.63
						 -180 0 0 0 442.91 A10.63 10.63 -180 0 0 10.63 453.54 L17.72 453.54 Z" class="st17"/>
			<text x="4.17" y="445.31" class="st18" v:langID="2052"><v:paragraph v:horizAlign="1"/><v:tabList/>lunit</text>		</g>
	</g>
</svg>
