<?xml version="1.0" encoding="UTF-8" standalone="no"?>
<!DOCTYPE svg PUBLIC "-//W3C//DTD SVG 1.0//EN" "http://www.w3.org/TR/2001/REC-SVG-20010904/DTD/svg10.dtd">
<!-- 由 Microsoft Visio 11.0, SVG Export, v1.0 生成 icon.svg icon -->
<svg xmlns="http://www.w3.org/2000/svg" xmlns:v="http://schemas.microsoft.com/visio/2003/SVGExtensions/" width="8.26772in"
		height="7.87402in" viewBox="0 0 595.276 566.929" xml:space="preserve" color-interpolation-filters="sRGB" class="st9">
	<v:documentProperties v:langID="2052" v:metric="true" v:viewMarkup="false"/>

	<style type="text/css">
	<![CDATA[
		.st1 {fill:#ff0000;stroke:none;stroke-linecap:round;stroke-linejoin:round;stroke-width:0.24}
		.st2 {fill:#00b050;stroke:none;stroke-linecap:round;stroke-linejoin:round;stroke-width:0.24}
		.st3 {fill:#0070c0;stroke:none;stroke-linecap:round;stroke-linejoin:round;stroke-width:0.24}
		.st4 {fill:#ffff00;stroke:none;stroke-linecap:round;stroke-linejoin:round;stroke-width:0.24}
		.st5 {fill:#ff00ff;stroke:none;stroke-linecap:round;stroke-linejoin:round;stroke-width:0.24}
		.st6 {fill:#00b0f0;stroke:none;stroke-linecap:round;stroke-linejoin:round;stroke-width:0.24}
		.st7 {fill:none;stroke:none;stroke-linecap:round;stroke-linejoin:round;stroke-width:0.72}
		.st8 {fill:#000000;font-family:宋体;font-size:2.50001em;font-style:italic}
		.st9 {fill:none;fill-rule:evenodd;font-size:12;overflow:visible;stroke-linecap:square;stroke-miterlimit:3}
	]]>
	</style>

	<g v:mID="4" v:index="2" v:groupContext="foregroundPage">
		<title>icon</title>
		<v:pageProperties v:drawingScale="0.0393701" v:pageScale="0.0393701" v:drawingUnits="24" v:shadowOffsetX="8.50394"
				v:shadowOffsetY="-8.50394"/>
		<v:layer v:name="连接线" v:index="0"/>
		<g id="shape20-1" v:mID="20" v:groupContext="shape" transform="translate(110.279,-388.743)">
			<title>工作表.20</title>
			<path d="M367.61 559.59 A184.252 184.252 -180 0 0 -0 566.93 A184.252 184.252 0 0 1 190.19 563.35 A184.252 184.252 0 0
						 1 367.61 559.59 Z" class="st1"/>
		</g>
		<g id="shape1-3" v:mID="1" v:groupContext="shape" transform="translate(24.0945,-48.5051)">
			<title>工作表.1</title>
			<path d="M184.94 398.6 A184.252 184.252 0 0 1 85.98 235.28 A184.252 184.252 0 0 1 86.18 226.69 A184.252 184.252 -180
						 0 0 0 382.68 A184.252 184.252 -180 0 0 276.38 542.24 A184.252 184.252 0 0 1 184.94 398.6 Z" class="st2"/>
		</g>
		<g id="shape2-5" v:mID="2" v:groupContext="shape" transform="translate(300.472,-48.5051)">
			<title>工作表.2</title>
			<path d="M-0 542.24 A184.252 184.252 -180 0 0 276.38 382.68 A184.252 184.252 -180 0 0 177.42 219.36 A184.252 184.252
						 0 0 1 178.11 235.28 A184.252 184.252 0 0 1 91.93 391.26 A184.252 184.252 0 0 1 0 542.24 Z" class="st3"/>
		</g>
		<g id="shape7-7" v:mID="7" v:groupContext="shape" transform="translate(110.079,-216.47)">
			<title>工作表.7</title>
			<path d="M190.39 391.44 A184.252 184.252 -180 0 0 0.2 395.02 A184.252 184.252 -180 0 0 0 403.61 A184.252 184.252 -180
						 0 0 98.96 566.93 A184.252 184.252 0 0 1 98.27 551.01 A184.252 184.252 0 0 1 190.39 391.44 Z" class="st4"/>
		</g>
		<g id="shape8-9" v:mID="8" v:groupContext="shape" transform="translate(300.472,-224.173)">
			<title>工作表.8</title>
			<path d="M91.93 566.93 A184.252 184.252 -180 0 0 178.11 410.94 A184.252 184.252 -180 0 0 177.42 395.02 A184.252 184.252
						 -180 0 0 0 398.78 A184.252 184.252 0 0 1 92.13 558.35 A184.252 184.252 0 0 1 91.93 566.93 Z" class="st5"/>
		</g>
		<g id="shape4-11" v:mID="4" v:groupContext="shape" transform="translate(209.002,-73.072)">
			<title>工作表.4</title>
			<path d="M0 423.28 A184.252 184.252 -180 0 0 91.44 566.93 A184.252 184.252 -180 0 0 183.36 415.95 A184.252 184.252 0
						 0 1 0 423.28 Z" class="st6"/>
		</g>
		<g id="shape3-13" v:mID="3" v:groupContext="shape" transform="translate(34.0157,-2.51856)">
			<title>工作表.3</title>
			<desc>Structured Tex</desc>
			<v:textBlock v:margins="rect(4,4,4,4)" v:tabSpace="42.5197"/>
			<v:textRect cx="242.631" cy="555.826" width="485.27" height="22.2064"/>
			<rect x="0" y="544.723" width="485.262" height="22.2064" class="st7"/>
			<text x="137.63" y="564.83" class="st8" v:langID="2052"><v:paragraph v:horizAlign="1"/><v:tabList/>Structured Tex</text>		</g>
	</g>
</svg>
